<?xml version="1.0" standalone="no"?>
<!DOCTYPE svg PUBLIC "-//W3C//DTD SVG 20010904//EN"
 "http://www.w3.org/TR/2001/REC-SVG-20010904/DTD/svg10.dtd">
<svg version="1.0" xmlns="http://www.w3.org/2000/svg"
 width="560.000000pt" height="285.000000pt" viewBox="0 0 560.000000 285.000000"
 preserveAspectRatio="xMidYMid meet">

<g transform="translate(0.000000,285.000000) scale(0.100000,-0.100000)"
fill="#000000" stroke="none">
<path d="M1670 1910 l0 -220 180 0 180 0 0 220 0 220 -180 0 -180 0 0 -220z
m125 171 l-70 -6 -3 -99 c-2 -73 1 -102 10 -108 23 -14 27 -9 17 24 -13 46
-10 69 4 31 20 -53 27 -49 29 18 l2 64 5 -70 6 -70 24 68 c29 86 39 81 13 -7
-11 -36 -19 -66 -18 -66 1 0 29 36 61 80 32 44 60 78 63 76 2 -3 -22 -41 -52
-85 -31 -45 -52 -81 -47 -81 5 0 12 4 15 9 4 5 30 26 59 46 l52 36 -60 -55
c-33 -31 -58 -56 -55 -56 3 0 27 7 54 15 67 20 70 12 4 -11 l-53 -19 45 -4 45
-4 -40 -12 -40 -12 45 -16 c41 -16 27 -16 -35 -1 -19 5 -25 2 -25 -10 0 -19
33 -28 91 -24 l44 3 6 105 5 105 2 -112 2 -113 -144 0 -144 0 -6 33 c-7 42 -8
316 -1 328 4 5 41 8 83 7 l77 -2 -70 -5z"/>
<path d="M1720 1796 l0 -54 60 -4 c33 -1 60 -2 60 0 0 16 -37 66 -63 86 -49
38 -57 34 -57 -28z"/>
<path d="M892 1963 c-107 -52 -120 -196 -23 -255 20 -12 38 -23 40 -24 5 -4
-73 -204 -80 -204 -3 0 -19 44 -36 98 -26 82 -29 99 -18 112 12 13 7 15 -41
15 -39 0 -50 -3 -41 -10 8 -5 21 -24 29 -40 15 -29 15 -34 -14 -103 -17 -39
-34 -72 -37 -72 -3 0 -23 46 -44 102 -30 79 -35 103 -25 109 8 5 -7 9 -36 9
-42 0 -47 -2 -33 -12 13 -11 60 -116 117 -263 8 -20 18 -3 77 134 8 18 16 31
19 28 3 -3 18 -39 34 -81 l28 -76 -47 -1 c-25 0 -55 -4 -65 -8 -19 -7 -19 -8
2 -13 21 -6 22 -11 22 -127 0 -117 -1 -122 -22 -131 -17 -6 -7 -9 42 -9 50 0
60 2 42 10 -21 8 -23 14 -20 61 3 45 6 53 23 53 19 0 24 -7 68 -100 28 -60 75
-95 128 -95 21 0 40 4 43 9 3 4 -5 6 -18 4 -48 -10 -85 23 -125 110 l-38 82
24 19 c53 41 46 107 -12 122 -14 3 -25 11 -25 16 0 5 23 63 51 127 l50 118 55
6 c64 7 84 20 84 54 0 24 0 24 -26 -6 -22 -27 -32 -31 -76 -31 -43 0 -54 4
-83 33 -77 77 -48 214 50 233 44 8 74 -3 108 -39 l29 -31 -4 29 c-2 19 -12 34
-28 42 -35 18 -109 16 -148 -4z m-49 -565 c9 -7 20 -27 23 -44 8 -43 -22 -74
-71 -74 l-35 0 0 65 0 65 33 0 c18 0 41 -6 50 -12z"/>
<path d="M1155 1823 c-21 -48 -49 -98 -62 -110 l-24 -23 38 0 c25 0 33 3 25 9
-12 7 -11 14 2 40 14 25 23 31 50 31 29 0 36 -5 45 -32 9 -24 8 -34 -1 -40 -8
-4 6 -7 32 -7 25 0 40 3 33 5 -7 3 -29 49 -49 102 -20 53 -40 101 -44 105 -4
4 -24 -32 -45 -80z m49 -20 c6 -20 4 -23 -18 -23 -29 0 -31 7 -14 45 12 27 19
23 32 -22z"/>
<path d="M1331 1891 c-35 -35 -27 -67 22 -97 56 -35 69 -52 56 -75 -16 -30
-65 -25 -83 9 l-15 27 -1 -28 c0 -52 84 -61 116 -12 24 37 11 70 -39 97 -44
24 -61 63 -35 79 19 13 26 11 49 -12 l21 -21 -4 24 c-4 32 -58 38 -87 9z"/>
<path d="M1466 1889 c10 -11 14 -40 14 -97 0 -67 -3 -83 -17 -91 -13 -8 3 -10
63 -11 71 0 82 2 87 19 4 17 2 17 -24 4 -48 -24 -64 -14 -67 40 -3 50 1 53 42
37 22 -8 26 -7 26 8 0 15 -7 17 -35 14 -35 -4 -35 -4 -35 37 0 39 2 41 29 41
17 0 33 -4 36 -10 10 -16 27 -12 23 6 -2 12 -19 16 -80 17 -69 2 -75 0 -62
-14z"/>
<path d="M2630 1525 l0 -215 175 0 175 0 0 215 0 215 -175 0 -175 0 0 -215z
m145 174 c-22 -4 -55 -8 -72 -8 l-33 -1 1 -57 c1 -85 12 -146 28 -151 11 -4
12 2 7 24 -16 66 -15 76 3 29 l19 -50 2 40 c1 22 6 54 10 70 6 24 8 17 10 -35
l2 -65 20 60 c25 70 35 62 14 -10 -9 -27 -14 -51 -12 -52 2 -2 27 28 56 67 28
38 54 70 57 70 6 0 -4 -16 -55 -88 -24 -35 -42 -65 -40 -67 2 -2 28 14 58 36
l55 40 -55 -51 c-51 -48 -53 -51 -25 -44 17 4 41 11 54 16 13 5 26 7 28 4 2
-2 -20 -13 -49 -25 -49 -18 -50 -20 -21 -20 46 -1 52 -21 6 -22 l-38 -1 50
-19 c46 -18 34 -19 -31 -3 -20 5 -25 3 -22 -7 3 -10 25 -15 71 -17 l66 -3 4
103 3 103 2 -112 2 -113 -145 0 -145 0 0 185 0 185 78 -1 c68 -1 72 -2 37 -10z"/>
<path d="M2680 1415 l0 -55 55 0 c34 0 55 4 55 11 0 15 -84 99 -99 99 -7 0
-11 -21 -11 -55z"/>
<path d="M3170 1658 c19 -13 37 -20 39 -15 5 13 -10 25 -44 33 l-30 7 35 -25z"/>
<path d="M3076 1639 c-33 -39 -34 -82 -2 -114 44 -43 126 -44 134 -1 3 16 2
16 -17 -3 -27 -27 -53 -27 -88 3 -37 32 -39 99 -4 127 13 10 19 19 13 19 -6 0
-22 -14 -36 -31z"/>
<path d="M3577 1658 c6 -7 23 -46 38 -85 16 -40 30 -73 31 -73 5 0 44 78 44
87 -1 4 -8 -5 -17 -22 l-16 -30 -24 54 c-13 30 -22 60 -19 68 4 9 -3 13 -21
13 -19 0 -23 -3 -16 -12z"/>
<path d="M3678 1658 c7 -7 12 -22 12 -35 0 -13 4 -23 9 -23 4 0 14 -20 21 -45
7 -25 16 -48 20 -50 5 -3 23 30 40 72 18 43 38 81 44 85 6 5 2 8 -10 8 -12 0
-21 -6 -20 -12 1 -16 -36 -118 -43 -118 -10 0 -42 111 -36 121 4 5 -6 9 -21 9
-22 0 -25 -3 -16 -12z"/>
<path d="M4558 1661 c10 -6 13 -29 10 -85 -2 -62 0 -76 12 -76 12 0 15 16 15
85 0 84 0 85 -25 85 -18 0 -21 -3 -12 -9z"/>
<path d="M4638 1655 c27 -20 28 -40 3 -61 -18 -15 -18 -19 -4 -53 18 -43 48
-77 74 -84 15 -4 13 1 -9 21 -38 37 -59 89 -44 111 32 43 24 73 -19 79 l-24 3
23 -16z"/>
<path d="M945 1624 c11 -9 15 -32 15 -102 0 -78 -2 -91 -17 -95 -10 -3 20 -4
67 -4 76 2 85 4 89 22 3 15 0 17 -10 8 -13 -10 -47 -17 -76 -14 -13 1 -19 72
-7 83 3 4 19 2 35 -2 24 -7 29 -6 29 9 0 14 -7 16 -35 13 -35 -4 -35 -4 -35
37 0 40 1 41 33 41 18 0 38 -5 45 -12 9 -9 12 -8 12 4 0 14 -14 17 -80 20 -61
2 -77 0 -65 -8z"/>
<path d="M1142 1620 c-38 -36 -29 -63 41 -114 39 -28 48 -60 21 -70 -27 -10
-47 -7 -67 12 -19 16 -19 16 -16 -3 10 -48 97 -41 121 10 15 34 -1 63 -52 93
-43 24 -53 55 -22 70 20 11 43 5 59 -17 15 -20 17 -7 3 20 -14 25 -60 25 -88
-1z"/>
<path d="M1460 1628 c0 -5 7 -8 15 -8 12 0 15 -17 15 -90 0 -74 -3 -91 -17
-99 -13 -8 3 -10 63 -11 66 0 83 3 88 16 9 23 8 24 -19 10 -14 -7 -36 -11 -50
-8 -22 4 -25 10 -25 44 0 40 0 40 35 36 27 -3 35 0 35 12 0 12 -8 15 -35 12
-35 -4 -35 -4 -35 37 0 40 1 41 33 41 18 0 38 -5 45 -12 9 -9 12 -8 12 4 0 14
-14 17 -80 20 -44 2 -80 0 -80 -4z"/>
<path d="M1652 1629 c36 -28 36 -193 0 -202 -9 -3 8 -5 38 -6 42 0 51 2 38 10
-12 6 -18 22 -18 44 0 28 4 35 20 35 11 0 20 -4 20 -9 0 -5 15 -26 34 -45 30
-33 38 -36 87 -36 42 1 50 3 37 11 -15 8 -18 24 -18 82 l0 72 85 -85 85 -85 0
97 c0 82 3 99 18 107 13 8 9 10 -23 11 -22 0 -35 -4 -28 -8 11 -7 21 -127 11
-137 -3 -3 -36 28 -73 70 -57 63 -72 75 -99 75 -26 -1 -28 -2 -13 -11 24 -14
26 -176 2 -186 -20 -7 -49 19 -65 58 -11 26 -10 32 9 53 46 49 12 83 -95 92
-60 6 -67 4 -52 -7z m116 -21 c29 -29 7 -78 -35 -78 -21 0 -23 5 -23 45 0 40
2 45 23 45 13 0 28 -5 35 -12z"/>
<path d="M1256 1614 c-5 -13 -2 -15 11 -9 62 26 63 25 63 -73 0 -76 -3 -93
-17 -101 -14 -8 -5 -10 36 -11 47 0 52 2 37 13 -14 10 -16 26 -14 97 3 78 5
85 23 84 11 -1 27 -4 36 -8 10 -5 16 -2 16 9 0 23 -182 22 -191 -1z"/>
<path d="M3271 1604 c-6 -15 -9 -29 -6 -32 3 -3 5 0 5 6 0 28 17 9 29 -33 7
-25 19 -45 27 -45 11 0 9 11 -7 52 -31 80 -34 83 -48 52z"/>
<path d="M3359 1608 c-12 -23 -5 -32 47 -65 18 -10 18 -12 2 -29 -17 -17 -18
-17 -38 1 -17 15 -20 16 -15 3 15 -40 75 -26 75 17 0 17 -9 29 -31 40 -34 18
-34 40 0 39 11 0 21 3 21 8 0 18 -50 7 -61 -14z"/>
<path d="M3450 1615 c7 -8 11 -35 8 -65 l-3 -50 37 0 c20 0 39 4 42 8 3 5 -8
6 -25 4 -26 -4 -29 -1 -29 21 0 19 6 27 23 30 l22 4 -22 2 c-18 1 -23 7 -23
27 0 23 3 26 25 22 14 -3 25 -1 25 3 0 5 -21 9 -46 9 -40 0 -45 -2 -34 -15z"/>
<path d="M3825 1565 l0 -65 43 0 c23 0 42 4 42 8 0 4 -12 8 -27 7 -22 0 -29 5
-31 23 -3 18 2 22 25 23 28 1 28 1 3 8 -37 10 -35 47 3 44 15 -1 27 2 27 8 0
5 -19 9 -42 9 l-43 0 0 -65z"/>
<path d="M3937 1624 c-17 -17 -6 -51 23 -67 34 -20 37 -29 15 -47 -12 -10 -18
-10 -30 0 -9 7 -15 8 -15 2 0 -16 30 -23 51 -12 28 15 25 58 -5 72 -14 6 -27
17 -30 25 -8 20 21 28 41 12 14 -12 16 -12 11 1 -5 16 -49 26 -61 14z"/>
<path d="M4010 1620 c0 -5 10 -9 23 -7 19 2 22 -3 25 -35 2 -20 -2 -46 -8 -58
-9 -17 -8 -20 10 -20 18 0 20 6 20 61 0 56 2 60 20 54 11 -4 20 -2 20 4 0 7
-23 11 -55 11 -30 0 -55 -4 -55 -10z"/>
<path d="M4145 1565 l0 -65 43 0 c23 0 42 4 42 8 0 5 -13 7 -30 4 -27 -4 -30
-1 -30 21 0 20 6 27 28 30 l27 4 -27 2 c-23 1 -28 6 -28 27 0 24 3 26 30 21
17 -4 30 -2 30 3 0 6 -19 10 -42 10 l-43 0 0 -65z"/>
<path d="M4249 1621 c9 -6 12 -25 10 -65 -3 -45 -1 -56 11 -56 13 0 15 11 13
60 -3 63 10 78 38 44 11 -14 10 -18 -6 -30 -19 -14 -19 -15 1 -41 11 -15 26
-29 34 -31 8 -3 5 7 -8 23 -20 25 -21 30 -7 45 20 22 19 37 -4 50 -24 12 -102
14 -82 1z"/>
<path d="M4370 1615 c7 -8 11 -35 8 -65 -2 -29 1 -50 7 -50 6 0 9 20 7 48 l-4
47 51 -50 51 -49 0 55 c0 30 5 60 12 67 9 9 8 12 -8 12 -17 0 -19 -6 -16 -47
l4 -48 -49 48 c-27 26 -55 47 -62 47 -11 0 -11 -3 -1 -15z"/>
<path d="M4710 1615 c8 -10 11 -33 8 -65 l-5 -50 41 1 c30 2 34 3 14 6 -36 6
-40 49 -5 56 l22 4 -22 2 c-18 1 -23 7 -23 27 0 23 3 26 25 22 14 -3 25 -1 25
3 0 5 -21 9 -46 9 -40 0 -45 -2 -34 -15z"/>
<path d="M4822 1618 c-19 -19 -14 -35 18 -58 17 -12 30 -28 30 -36 0 -20 -27
-29 -45 -14 -9 8 -15 8 -15 2 0 -20 41 -24 61 -6 26 24 24 39 -11 64 -38 27
-41 54 -5 48 13 -3 22 -1 19 3 -8 13 -38 11 -52 -3z"/>
<path d="M4910 1611 c14 -27 13 -84 -2 -99 -9 -9 -2 -12 35 -12 26 0 47 4 47
9 0 4 -11 6 -24 4 -17 -4 -25 0 -29 16 -6 24 0 31 27 32 18 1 17 2 -4 8 -36
10 -34 46 3 46 15 -1 27 3 27 7 0 4 -20 8 -45 8 -42 0 -45 -2 -35 -19z"/>
<path d="M5015 1565 c0 -52 3 -65 15 -65 13 0 15 11 13 60 -3 63 10 78 37 45
10 -13 10 -19 -4 -34 -15 -17 -15 -20 4 -43 11 -14 29 -28 41 -31 20 -5 19 -3
-6 23 -26 28 -28 32 -15 56 13 23 13 27 -5 40 -10 8 -33 14 -49 14 l-31 0 0
-65z"/>
<path d="M5143 1568 c16 -35 31 -64 32 -66 2 -2 16 24 31 58 15 33 32 59 38
57 6 -2 11 -28 11 -60 l-1 -57 38 0 c20 0 39 4 42 8 3 5 -8 6 -25 4 -26 -4
-29 -1 -29 21 0 19 6 27 23 30 l22 4 -22 2 c-18 1 -23 7 -23 27 0 23 3 26 25
22 14 -3 25 -1 25 3 0 5 -27 9 -61 9 -34 0 -58 -4 -54 -9 6 -10 -24 -81 -35
-81 -10 0 -32 69 -25 80 3 6 -4 10 -18 10 l-24 0 30 -62z"/>
<path d="M3238 1530 c-16 -27 -16 -30 -1 -30 9 0 13 3 10 7 -4 3 0 17 8 30 9
13 12 23 8 23 -5 0 -16 -14 -25 -30z"/>
<path d="M3060 1419 c0 -17 5 -39 10 -50 12 -21 52 -26 68 -6 12 15 21 87 11
87 -5 0 -9 -19 -11 -42 -3 -38 -6 -43 -28 -43 -23 0 -25 4 -25 43 0 27 -4 42
-12 42 -8 0 -13 -13 -13 -31z"/>
<path d="M3245 1400 c0 -27 3 -50 8 -50 4 0 7 17 7 37 l0 37 40 -39 c22 -21
40 -34 40 -28 0 11 -79 93 -90 93 -3 0 -5 -22 -5 -50z"/>
<path d="M3325 1440 c3 -5 8 -10 11 -10 2 0 4 5 4 10 0 6 -5 10 -11 10 -5 0
-7 -4 -4 -10z"/>
<path d="M3440 1400 c0 -27 5 -50 10 -50 6 0 10 23 10 50 0 28 -4 50 -10 50
-5 0 -10 -22 -10 -50z"/>
<path d="M3573 1408 c28 -55 26 -52 32 -46 8 8 -29 88 -42 88 -7 0 -3 -16 10
-42z"/>
<path d="M3627 1430 c-3 -11 -3 -20 -1 -20 2 0 8 9 14 20 6 11 7 20 2 20 -6 0
-12 -9 -15 -20z"/>
<path d="M3735 1400 c0 -50 0 -50 33 -50 17 0 32 4 32 8 0 5 -10 8 -22 8 -18
-1 -22 5 -24 36 -3 33 0 37 24 41 23 3 21 4 -8 6 l-35 1 0 -50z"/>
<path d="M3895 1400 c0 -29 4 -50 11 -50 6 0 10 20 10 50 -1 27 -5 50 -11 50
-5 0 -10 -22 -10 -50z"/>
<path d="M3939 1437 c10 -13 11 -21 3 -30 -13 -15 10 -57 30 -57 6 0 4 8 -5
18 -9 10 -15 31 -14 46 1 18 -4 31 -13 34 -13 5 -13 3 -1 -11z"/>
<path d="M4063 1434 c-4 -10 4 -24 22 -38 19 -15 25 -27 20 -36 -5 -9 -4 -11
3 -6 19 11 14 31 -13 56 -13 12 -22 27 -19 31 3 5 3 9 -1 9 -3 0 -8 -7 -12
-16z"/>
<path d="M4215 1400 c0 -27 5 -50 10 -50 6 0 10 23 10 50 0 28 -4 50 -10 50
-5 0 -10 -22 -10 -50z"/>
<path d="M4348 1443 c19 -4 22 -11 22 -49 0 -24 5 -44 10 -44 6 0 10 20 10 44
0 34 4 46 18 49 9 3 -5 5 -33 4 -27 0 -40 -2 -27 -4z"/>
<path d="M4523 1432 c10 -10 17 -33 17 -50 0 -18 5 -32 10 -32 6 0 10 14 10
32 0 17 8 41 18 52 17 21 17 21 -4 3 -19 -16 -23 -16 -34 -2 -7 8 -17 15 -23
15 -5 0 -3 -8 6 -18z"/>
<path d="M5169 1388 c-7 -18 -5 -79 2 -84 17 -10 37 15 35 46 -1 30 -16 55
-16 27 0 -9 -5 -17 -11 -17 -6 0 -9 7 -5 15 4 12 0 24 -5 13z m23 -63 c0 -5
-5 -11 -11 -13 -6 -2 -11 4 -11 13 0 9 5 15 11 13 6 -2 11 -8 11 -13z"/>
<path d="M4880 1345 c0 -19 3 -35 8 -35 4 0 7 16 7 35 0 19 -3 35 -7 35 -5 0
-8 -16 -8 -35z"/>
<path d="M4945 1369 c-4 -6 2 -17 14 -25 24 -17 18 -39 -8 -29 -13 5 -14 4 -3
-6 10 -11 16 -10 30 5 16 16 16 18 -3 32 -11 9 -19 20 -17 25 3 12 -5 11 -13
-2z"/>
<path d="M5023 1345 c0 -22 2 -30 4 -17 2 12 2 30 0 40 -3 9 -5 -1 -4 -23z"/>
<path d="M5292 1368 c-7 -7 -12 -20 -12 -29 0 -21 26 -43 40 -34 12 8 13 45 1
45 -5 0 -7 -10 -4 -21 4 -16 2 -20 -8 -17 -20 7 -22 33 -4 52 9 9 13 16 8 16
-5 0 -14 -5 -21 -12z"/>
<path d="M5238 1358 c10 -13 10 -19 -2 -31 -14 -13 -13 -15 4 -20 11 -3 23 -1
26 4 3 5 1 9 -4 9 -5 0 -8 10 -8 21 1 12 -6 24 -14 27 -12 4 -13 3 -2 -10z"/>
<path d="M945 1344 c11 -9 15 -32 15 -102 0 -78 -2 -91 -17 -95 -10 -3 19 -5
63 -6 66 -1 83 2 88 15 9 25 8 26 -18 8 -14 -8 -35 -14 -48 -12 -19 2 -23 10
-26 47 l-3 43 35 -4 c28 -3 36 0 36 12 0 12 -8 15 -35 12 -35 -4 -35 -4 -35
37 0 40 1 41 33 41 18 0 38 -5 45 -12 9 -9 12 -8 12 8 0 17 -7 19 -80 19 -61
0 -77 -3 -65 -11z"/>
<path d="M1141 1336 c-32 -34 -22 -65 29 -96 40 -24 59 -58 45 -79 -10 -17
-56 -13 -78 7 -19 16 -19 16 -16 -3 10 -48 97 -41 121 10 15 33 -2 65 -47 90
-39 20 -53 49 -35 70 17 20 30 19 57 -7 17 -16 23 -18 23 -7 0 43 -64 52 -99
15z"/>
<path d="M1275 1344 c23 -17 22 -179 -2 -193 -13 -8 3 -10 63 -11 66 0 83 3
88 16 9 25 8 26 -18 8 -14 -8 -35 -14 -48 -12 -19 2 -23 10 -26 47 l-3 43 35
-4 c28 -3 36 0 36 12 0 12 -8 15 -35 12 -35 -4 -35 -4 -35 37 0 40 1 41 33 41
18 0 38 -5 45 -12 9 -9 12 -8 12 8 0 17 -7 19 -80 19 -61 0 -77 -3 -65 -11z"/>
<path d="M1453 1342 c25 -27 24 -177 0 -191 -14 -8 -7 -10 30 -11 44 0 47 1
33 16 -9 8 -16 29 -16 45 0 24 4 29 25 29 15 0 25 -6 25 -14 0 -15 64 -76 80
-76 4 0 16 -3 26 -7 10 -4 -3 14 -29 38 -49 48 -57 68 -32 89 8 7 15 26 15 42
0 24 -6 32 -35 44 -19 7 -58 14 -86 14 -50 0 -51 -1 -36 -18z m115 -14 c7 -7
12 -21 12 -33 0 -29 -19 -45 -52 -45 -27 0 -28 2 -28 45 0 43 1 45 28 45 15 0
33 -5 40 -12z"/>
<path d="M1610 1349 c0 -4 6 -9 13 -12 8 -3 31 -45 52 -94 21 -48 42 -92 46
-97 5 -5 28 34 52 86 64 138 87 141 87 13 0 -73 -5 -88 -30 -98 -8 -3 23 -5
70 -4 75 2 85 4 88 21 4 19 3 19 -13 2 -11 -11 -29 -16 -49 -14 -29 3 -31 6
-34 47 l-3 43 35 -4 c28 -3 36 0 36 12 0 12 -8 15 -35 12 -35 -4 -35 -4 -35
37 0 40 1 41 33 41 18 0 38 -5 45 -12 9 -9 12 -8 12 8 0 18 -8 19 -100 19 -88
0 -121 -6 -90 -17 11 -3 -39 -138 -51 -138 -4 0 -19 28 -34 62 -20 45 -25 66
-18 77 9 14 4 16 -33 16 -24 0 -44 -3 -44 -6z"/>
<path d="M5129 1358 c-5 -17 -4 -48 3 -48 4 0 8 11 8 25 0 20 -7 34 -11 23z"/>
<path d="M3493 1303 c247 -2 647 -2 890 0 243 1 42 2 -448 2 -490 0 -688 -1
-442 -2z"/>
<path d="M3962 1180 c0 -40 2 -47 7 -26 3 17 11 30 16 30 6 0 13 -13 16 -30
l7 -29 1 33 c1 26 -4 35 -18 39 -11 3 -22 12 -24 22 -3 9 -5 -9 -5 -39z"/>
<path d="M4610 1216 c0 -7 -9 -16 -20 -19 -15 -4 -20 -14 -20 -36 0 -26 4 -31
25 -31 23 0 25 3 25 50 0 28 -2 50 -5 50 -3 0 -5 -6 -5 -14z m0 -51 c0 -16 -6
-25 -15 -25 -15 0 -21 31 -8 43 13 14 23 6 23 -18z"/>
<path d="M4722 1180 c0 -40 2 -47 7 -26 3 17 11 30 16 30 6 0 13 -13 16 -30
l7 -29 1 33 c1 26 -4 35 -18 39 -11 3 -22 12 -24 22 -3 9 -5 -9 -5 -39z"/>
<path d="M5243 1180 c0 -30 2 -43 4 -27 2 15 2 39 0 55 -2 15 -4 2 -4 -28z"/>
<path d="M4132 1175 c-1 -33 1 -45 7 -36 7 11 13 12 23 4 10 -9 13 -5 13 18 0
16 -3 29 -7 29 -5 0 -8 -4 -8 -10 0 -23 -19 -8 -23 18 -2 15 -5 6 -5 -23z"/>
<path d="M4230 1178 c0 -45 2 -48 25 -48 21 0 25 5 25 30 0 20 -6 33 -17 37
-10 4 -21 11 -25 17 -4 6 -8 -10 -8 -36z m40 -19 c0 -10 -7 -19 -15 -19 -15 0
-21 31 -9 43 11 10 24 -3 24 -24z"/>
<path d="M5170 1177 c0 -47 1 -48 28 -45 21 2 27 8 27 27 0 13 -9 29 -20 35
-11 6 -23 16 -27 21 -4 6 -8 -12 -8 -38z m42 1 c7 -19 -2 -38 -18 -38 -8 0
-14 8 -14 18 0 30 23 44 32 20z"/>
<path d="M3912 1174 c4 -49 23 -55 22 -7 -1 20 -7 39 -13 41 -9 3 -11 -7 -9
-34z"/>
<path d="M4672 1173 c2 -20 9 -38 16 -39 7 -1 8 0 2 3 -13 6 -13 36 1 50 7 7
6 12 -6 17 -13 5 -16 0 -13 -31z"/>
<path d="M4073 1193 c-7 -2 -12 -19 -12 -36 l1 -32 7 29 c3 17 11 30 16 30 6
0 13 -13 17 -30 6 -28 6 -28 5 5 -2 35 -11 44 -34 34z"/>
<path d="M4301 1181 c-15 -27 -4 -51 23 -50 16 1 17 2 4 6 -25 6 -22 23 3 23
14 0 19 5 17 17 -5 25 -35 28 -47 4z m34 -1 c3 -5 -1 -10 -9 -10 -9 0 -16 5
-16 10 0 6 4 10 9 10 6 0 13 -4 16 -10z"/>
<path d="M4431 1186 c-20 -24 -9 -51 19 -51 21 0 25 5 25 30 0 34 -24 45 -44
21z m37 -24 c2 -15 -2 -22 -12 -22 -11 0 -16 9 -16 26 0 31 23 28 28 -4z"/>
<path d="M4513 1193 c-7 -2 -12 -19 -12 -36 l1 -32 7 29 c3 17 11 30 16 30 6
0 13 -13 17 -30 6 -28 6 -28 5 5 -2 35 -11 44 -34 34z"/>
<path d="M4797 1194 c-4 -4 -7 -20 -7 -36 0 -24 4 -28 28 -27 23 2 24 2 5 6
-29 6 -30 23 -2 23 14 0 19 5 17 17 -3 19 -29 29 -41 17z m28 -14 c3 -5 -1
-10 -10 -10 -9 0 -13 5 -10 10 3 6 8 10 10 10 2 0 7 -4 10 -10z"/>
<path d="M4903 1193 c-8 -3 -13 -22 -12 -51 1 -26 3 -39 6 -29 2 9 13 17 24
17 17 0 20 6 17 32 -3 32 -13 40 -35 31z m27 -34 c0 -10 -7 -19 -15 -19 -15 0
-21 31 -9 43 11 10 24 -3 24 -24z"/>
<path d="M4967 1194 c-4 -4 -7 -20 -7 -36 0 -23 4 -28 26 -28 23 0 25 3 22 32
-3 31 -25 48 -41 32z m33 -35 c0 -10 -7 -19 -15 -19 -15 0 -21 31 -9 43 11 10
24 -3 24 -24z"/>
<path d="M5024 1189 c-4 -7 3 -20 17 -29 l23 -18 -25 -5 c-23 -4 -23 -4 4 -6
31 -1 37 22 10 38 -16 9 -16 12 -3 21 13 8 13 10 -2 10 -9 0 -20 -5 -24 -11z"/>
<path d="M5084 1189 c-4 -7 3 -20 16 -29 22 -17 23 -18 4 -23 -16 -4 -16 -5 4
-6 29 -1 30 29 1 36 -21 6 -21 7 -4 20 16 11 17 13 3 13 -9 0 -20 -5 -24 -11z"/>
<path d="M5277 1194 c-4 -4 -7 -20 -7 -36 0 -24 4 -28 28 -27 23 2 24 2 5 6
-29 6 -30 23 -2 23 14 0 19 5 17 17 -3 19 -29 29 -41 17z m28 -14 c3 -5 -1
-10 -10 -10 -9 0 -13 5 -10 10 3 6 8 10 10 10 2 0 7 -4 10 -10z"/>
<path d="M4032 1160 c0 -19 2 -27 5 -17 2 9 2 25 0 35 -3 9 -5 1 -5 -18z"/>
<path d="M4363 1174 c4 -11 9 -32 13 -49 l7 -30 13 30 c19 43 18 80 -1 40 -12
-26 -13 -27 -14 -8 -1 12 -6 25 -12 29 -7 4 -9 0 -6 -12z"/>
<path d="M5148 1160 c2 -16 6 -30 8 -30 2 0 4 14 4 30 0 17 -4 30 -8 30 -5 0
-7 -13 -4 -30z"/>
<path d="M1713 1083 c-21 -7 -15 -43 10 -63 17 -15 19 -21 10 -31 -10 -10 -15
-9 -28 1 -12 10 -15 10 -15 -1 0 -10 -5 -9 -17 4 -14 14 -15 20 -4 41 18 33 7
46 -41 46 -35 0 -39 -2 -28 -15 8 -9 11 -30 7 -55 -4 -35 -3 -40 14 -40 17 0
17 3 7 20 -19 29 -1 36 21 8 25 -31 87 -34 105 -5 9 15 6 22 -18 42 -16 13
-26 28 -21 34 5 9 10 9 21 0 8 -7 14 -7 14 -1 0 12 -21 21 -37 15z m-58 -34
c0 -7 -8 -15 -17 -17 -18 -3 -25 18 -11 32 10 10 28 1 28 -15z"/>
<path d="M1070 1019 c4 -37 12 -64 20 -69 22 -14 76 -12 88 3 14 16 20 127 7
127 -6 0 -9 -21 -7 -50 4 -54 -8 -80 -39 -80 -34 0 -51 29 -47 82 2 38 0 48
-12 48 -13 0 -15 -10 -10 -61z"/>
<path d="M1225 1025 c0 -36 4 -55 12 -55 8 0 10 11 6 35 -7 43 4 44 42 5 16
-16 32 -30 37 -30 4 0 8 23 8 50 0 29 -5 50 -11 50 -6 0 -10 -12 -9 -27 3 -45
1 -45 -31 -8 -43 49 -54 45 -54 -20z"/>
<path d="M1358 1025 c-3 -52 -2 -55 21 -55 20 0 21 2 11 15 -7 8 -10 32 -8 55
2 26 -1 40 -8 40 -8 0 -13 -21 -16 -55z"/>
<path d="M1423 1030 c11 -27 24 -50 27 -50 3 0 16 20 28 45 29 61 46 59 40 -5
l-5 -50 33 0 c18 0 36 5 39 10 4 6 -5 10 -19 10 -24 0 -26 4 -26 39 0 33 4 40
23 44 12 2 -1 5 -30 6 -49 1 -52 0 -58 -29 -10 -43 -22 -45 -36 -5 -7 19 -18
35 -25 35 -8 0 -6 -16 9 -50z"/>
<path d="M1775 1025 c0 -42 3 -55 15 -55 12 0 15 13 15 55 0 42 -3 55 -15 55
-12 0 -15 -13 -15 -55z"/>
<path d="M1820 1071 c0 -5 9 -7 20 -4 17 5 20 0 20 -34 0 -21 -5 -44 -12 -51
-9 -9 -7 -12 13 -12 23 0 24 3 21 49 -4 46 -2 50 18 48 26 -2 44 -40 35 -74
-4 -18 -1 -23 13 -23 14 0 17 7 14 39 -3 31 0 42 19 55 18 12 20 16 7 16 -9 0
-21 -7 -26 -16 -8 -14 -10 -14 -21 0 -15 17 -121 23 -121 7z"/>
<path d="M884 1029 c-4 -7 0 -17 10 -25 10 -7 13 -15 7 -18 -5 -3 -12 -1 -14
4 -3 6 -4 5 -3 -2 5 -27 31 -13 31 16 -1 31 -18 45 -31 25z"/>
<path d="M1555 1030 c-3 -5 -1 -10 4 -10 6 0 11 5 11 10 0 6 -2 10 -4 10 -3 0
-8 -4 -11 -10z"/>
<path d="M686 1003 c1 -24 5 -28 30 -28 39 0 58 13 43 31 -9 11 -8 14 5 14 10
0 16 -9 16 -25 0 -14 6 -25 13 -25 7 0 12 13 12 30 0 28 -2 30 -37 30 -36 0
-49 -12 -28 -25 17 -11 11 -20 -15 -21 -18 -2 -25 3 -23 15 2 9 8 19 13 23 6
4 1 8 -10 8 -16 0 -20 -6 -19 -27z"/>
<path d="M967 1008 c-13 -19 -16 -20 -16 -5 -1 26 -16 20 -17 -7 -2 -20 3 -23
25 -21 39 3 54 14 42 29 -6 7 -8 16 -4 19 3 4 2 7 -4 7 -6 0 -18 -10 -26 -22z"/>
<path d="M862 990 c0 -14 2 -19 5 -12 2 6 2 18 0 25 -3 6 -5 1 -5 -13z"/>
<path d="M633 943 c75 -2 199 -2 275 0 75 1 13 3 -138 3 -151 0 -213 -2 -137
-3z"/>
<path d="M1428 943 c122 -2 322 -2 445 0 122 1 22 2 -223 2 -245 0 -345 -1
-222 -2z"/>
<path d="M509 845 c-8 -33 5 -88 21 -93 12 -4 13 -2 3 9 -7 7 -13 23 -13 36 0
13 6 23 13 23 8 0 9 3 1 8 -6 4 -13 14 -16 22 -3 11 -6 9 -9 -5z"/>
<path d="M561 810 c1 -42 3 -48 8 -25 3 16 14 31 23 33 13 2 18 -6 21 -35 l4
-38 1 43 c2 36 -1 42 -18 42 -10 0 -24 8 -29 18 -8 13 -10 4 -10 -38z"/>
<path d="M762 810 c0 -35 2 -48 7 -35 8 19 8 19 20 -4 7 -12 15 -20 18 -18 3
3 0 14 -5 23 -7 13 -7 25 0 39 11 20 10 20 -10 2 -20 -19 -21 -18 -25 15 -2
21 -4 13 -5 -22z"/>
<path d="M871 808 c-1 -50 1 -58 18 -58 44 0 57 72 14 78 -12 2 -24 11 -26 20
-3 9 -5 -9 -6 -40z m37 -13 c-2 -14 -7 -26 -13 -26 -5 0 -11 12 -13 26 -2 18
1 25 13 25 12 0 15 -7 13 -25z"/>
<path d="M1290 845 c0 -8 -9 -15 -20 -15 -13 0 -22 -9 -26 -25 -8 -31 11 -56
40 -51 18 2 21 11 24 54 2 32 -1 52 -7 52 -6 0 -11 -7 -11 -15z m-2 -50 c-2
-14 -7 -26 -13 -26 -5 0 -11 12 -13 26 -2 18 1 25 13 25 12 0 15 -7 13 -25z"/>
<path d="M1415 810 c0 -27 3 -50 8 -50 4 0 7 14 7 30 0 20 5 30 15 30 10 0 15
-10 15 -30 0 -16 5 -30 11 -30 6 0 9 14 7 33 -2 24 -8 33 -25 35 -13 2 -23 10
-23 18 0 8 -3 14 -7 14 -5 0 -8 -22 -8 -50z"/>
<path d="M1931 808 c-1 -50 1 -58 18 -58 44 0 57 72 14 78 -12 2 -24 11 -26
20 -3 9 -5 -9 -6 -40z m45 -3 c7 -18 -14 -47 -27 -39 -5 3 -9 16 -9 30 0 27
27 34 36 9z"/>
<path d="M2000 810 c0 -27 5 -50 10 -50 6 0 10 23 10 50 0 28 -4 50 -10 50 -5
0 -10 -22 -10 -50z"/>
<path d="M2095 850 c3 -5 8 -10 11 -10 2 0 4 5 4 10 0 6 -5 10 -11 10 -5 0 -7
-4 -4 -10z"/>
<path d="M1360 812 c0 -37 14 -62 34 -62 6 0 5 5 -2 12 -15 15 -16 58 -1 58 6
0 4 7 -5 15 -22 22 -26 19 -26 -23z"/>
<path d="M640 795 c0 -19 5 -35 10 -35 6 0 10 16 10 35 0 19 -4 35 -10 35 -5
0 -10 -16 -10 -35z"/>
<path d="M678 795 c-2 -20 0 -38 4 -41 4 -3 8 11 8 30 0 25 4 36 15 36 10 0
15 -10 15 -30 0 -16 5 -30 11 -30 6 0 9 14 7 33 -2 26 -8 33 -29 35 -24 3 -27
-1 -31 -33z"/>
<path d="M947 823 c-22 -21 2 -73 33 -73 12 1 12 2 -2 11 -24 13 -23 29 2 29
13 0 20 7 20 20 0 14 -7 20 -23 20 -13 0 -27 -3 -30 -7z m43 -13 c0 -5 -7 -10
-15 -10 -8 0 -15 5 -15 10 0 6 7 10 15 10 8 0 15 -4 15 -10z"/>
<path d="M1021 798 c29 -91 25 -87 38 -40 7 24 15 50 18 58 3 8 1 14 -5 14 -5
0 -13 -15 -17 -32 l-7 -33 -11 33 c-5 17 -13 32 -18 32 -4 0 -3 -15 2 -32z"/>
<path d="M1097 824 c-11 -11 -8 -62 3 -69 6 -3 19 -3 31 0 28 9 23 69 -6 73
-12 2 -24 0 -28 -4z m41 -31 c4 -24 -26 -40 -34 -18 -8 21 3 47 19 43 6 -3 13
-14 15 -25z"/>
<path d="M1168 795 c-2 -20 0 -38 4 -41 4 -3 8 11 8 30 0 25 4 36 15 36 10 0
15 -10 15 -30 0 -16 5 -30 11 -30 6 0 9 14 7 33 -2 26 -8 33 -29 35 -24 3 -27
-1 -31 -33z"/>
<path d="M1497 823 c-11 -11 -8 -48 5 -61 7 -7 21 -12 33 -11 19 0 19 1 -2 9
-28 12 -30 30 -3 30 13 0 20 7 20 20 0 14 -7 20 -23 20 -13 0 -27 -3 -30 -7z
m43 -13 c0 -5 -9 -10 -21 -10 -11 0 -17 5 -14 10 3 6 13 10 21 10 8 0 14 -4
14 -10z"/>
<path d="M1611 773 c1 -32 3 -51 5 -43 3 9 15 20 27 25 16 7 22 19 22 40 0 25
-4 30 -27 33 -28 3 -28 3 -27 -55z m45 32 c7 -18 -14 -47 -27 -39 -5 3 -9 16
-9 30 0 27 27 34 36 9z"/>
<path d="M1684 805 c-7 -27 9 -55 31 -55 22 0 38 28 31 55 -5 18 -13 25 -31
25 -18 0 -26 -7 -31 -25z m44 -10 c-2 -14 -7 -26 -13 -26 -5 0 -11 12 -13 26
-2 18 1 25 13 25 12 0 15 -7 13 -25z"/>
<path d="M1760 811 c0 -11 9 -21 21 -24 12 -3 18 -10 14 -17 -4 -6 -13 -9 -21
-6 -8 3 -14 1 -14 -4 0 -14 34 -12 48 2 14 14 -2 38 -24 38 -23 0 -16 18 9 23
19 4 18 4 -5 6 -21 1 -28 -4 -28 -18z"/>
<path d="M1827 823 c-13 -12 -7 -24 19 -33 14 -6 22 -15 19 -21 -4 -6 -13 -8
-21 -5 -8 3 -14 1 -14 -5 0 -6 10 -9 22 -7 30 4 37 38 9 45 -28 7 -27 21 2 26
20 4 20 4 -4 6 -14 0 -29 -2 -32 -6z"/>
<path d="M1903 790 c0 -25 2 -35 4 -22 2 12 2 32 0 45 -2 12 -4 2 -4 -23z"/>
<path d="M2034 805 c-4 -15 -1 -32 6 -40 13 -16 50 -21 50 -6 0 5 -7 8 -16 7
-9 0 -19 5 -21 12 -3 7 3 12 15 12 24 0 32 8 25 26 -3 8 -16 14 -29 14 -17 0
-25 -7 -30 -25z m46 5 c0 -5 -7 -10 -15 -10 -8 0 -15 5 -15 10 0 6 7 10 15 10
8 0 15 -4 15 -10z"/>
</g>
</svg>
