<?xml version="1.0" standalone="no"?>
<!DOCTYPE svg PUBLIC "-//W3C//DTD SVG 20010904//EN"
 "http://www.w3.org/TR/2001/REC-SVG-20010904/DTD/svg10.dtd">
<svg version="1.0" xmlns="http://www.w3.org/2000/svg"
 width="560.000000pt" height="285.000000pt" viewBox="0 0 560.000000 285.000000"
 preserveAspectRatio="xMidYMid meet">

<g transform="translate(0.000000,285.000000) scale(0.100000,-0.100000)"
fill="#000000" stroke="none">
<path d="M2617 2483 c-32 -4 -36 -7 -27 -18 7 -8 13 -42 14 -76 l1 -61 35 6
c19 3 43 6 53 6 9 0 17 8 17 17 0 13 -3 14 -12 5 -7 -7 -25 -12 -40 -12 -25 0
-28 4 -28 31 0 28 3 31 25 27 20 -4 25 -1 24 16 0 11 -3 15 -6 9 -2 -7 -16
-13 -29 -13 -19 0 -24 5 -24 26 0 24 3 26 35 22 24 -3 35 0 35 9 0 7 -8 12
-17 11 -10 -1 -35 -3 -56 -5z"/>
<path d="M2812 2478 c-20 -20 -14 -34 25 -65 25 -21 34 -35 30 -46 -9 -24 -43
-21 -61 5 l-16 22 0 -27 c0 -25 3 -27 39 -27 68 0 79 46 21 88 -33 25 -40 52
-13 52 9 0 25 -8 35 -17 15 -14 19 -14 16 -3 -6 30 -53 41 -76 18z"/>
<path d="M2974 2471 c10 -16 -14 -131 -28 -132 -6 -1 14 -7 43 -14 30 -8 59
-11 63 -9 14 9 8 24 -7 18 -8 -4 -27 -3 -41 0 -20 5 -25 12 -22 33 4 32 20 39
41 19 13 -14 16 -14 21 0 3 9 6 16 6 17 0 1 -12 3 -26 3 -32 2 -37 8 -29 33 5
17 12 20 33 14 15 -3 30 -11 34 -17 5 -7 8 -5 8 6 0 11 -11 19 -32 23 -18 4
-41 9 -52 12 -12 3 -16 1 -12 -6z"/>
<path d="M2401 2424 c-28 -13 -31 -17 -18 -27 16 -13 49 -105 42 -117 -2 -4 7
-5 20 -2 14 2 25 8 25 13 0 5 -5 8 -11 7 -6 -2 -15 7 -20 20 -12 32 13 39 47
13 29 -23 59 -27 69 -10 4 6 1 9 -6 7 -8 -1 -28 6 -45 16 -23 14 -30 24 -27
41 4 20 -19 56 -35 54 -4 0 -22 -7 -41 -15z m57 -32 c2 -14 -3 -25 -13 -29
-19 -7 -35 12 -35 40 0 28 44 18 48 -11z"/>
<path d="M3165 2420 c7 -11 -32 -102 -50 -116 -11 -8 -7 -12 16 -21 24 -9 28
-9 21 0 -14 17 4 58 21 51 8 -3 17 -23 21 -45 3 -21 8 -39 10 -39 3 0 11 -3
20 -6 14 -6 14 -3 1 22 -19 36 -18 54 0 78 17 23 19 52 5 61 -19 12 -70 24
-65 15z m53 -53 c-4 -24 -17 -30 -37 -18 -12 8 -13 14 -3 36 11 23 15 25 28
14 8 -7 14 -21 12 -32z"/>
<path d="M3324 2352 c3 -5 -1 -42 -10 -82 -8 -40 -12 -75 -9 -79 4 -3 21 3 38
14 18 10 51 29 74 41 31 16 39 25 30 31 -26 21 -35 22 -33 6 1 -16 -79 -81
-88 -72 -10 9 21 114 32 112 19 -4 14 3 -14 22 -15 9 -24 13 -20 7z"/>
<path d="M2115 2259 c-11 -12 -15 -19 -9 -16 13 8 59 -26 74 -53 10 -18 6 -19
-73 -13 -58 4 -86 2 -91 -6 -4 -6 -1 -11 6 -11 18 0 101 -84 92 -93 -4 -4 -3
-7 3 -7 5 0 18 9 27 19 17 19 17 19 -1 15 -12 -3 -30 7 -53 32 l-35 37 83 -7
c45 -4 82 -4 82 -1 0 4 -17 27 -39 53 -21 26 -40 53 -43 60 -2 10 -9 7 -23 -9z"/>
<path d="M2909 2267 c-4 -5 -85 -1043 -82 -1046 1 -2 5 -2 7 0 2 2 27 225 55
494 29 270 54 502 57 516 4 21 1 28 -15 32 -12 3 -22 4 -22 4z"/>
<path d="M2623 2204 c14 -136 143 -984 149 -984 4 0 5 12 3 28 -6 29 -99 809
-112 932 -7 62 -11 75 -27 78 -17 4 -19 -1 -13 -54z"/>
<path d="M3510 2216 c0 -19 -77 -93 -92 -88 -16 5 -7 -9 30 -43 38 -35 56 -42
67 -25 3 5 0 7 -7 5 -8 -3 -25 6 -38 20 -23 24 -23 25 -5 45 19 21 33 18 43
-10 6 -16 9 -17 26 -4 16 11 17 14 4 14 -8 0 -21 7 -28 16 -11 12 -10 18 3 31
15 15 18 15 37 -2 11 -10 18 -25 16 -32 -6 -16 10 -17 20 -2 3 6 -12 30 -35
52 -32 33 -41 38 -41 23z"/>
<path d="M2747 2148 c1 -29 10 -206 18 -393 19 -432 25 -505 36 -505 5 0 9
109 9 258 0 141 3 355 7 475 l6 217 -40 0 -40 0 4 -52z"/>
<path d="M3171 2117 c-18 -56 -89 -281 -231 -736 -28 -90 -49 -166 -46 -169 3
-2 8 1 11 9 6 17 186 544 264 772 53 154 56 169 40 178 -15 8 -20 0 -38 -54z"/>
<path d="M2352 2157 c-10 -12 20 -99 163 -468 168 -432 194 -495 195 -475 0 5
-72 211 -160 457 -88 247 -160 453 -160 457 0 4 -6 16 -13 26 -11 16 -15 16
-25 3z"/>
<path d="M2942 1713 c-45 -251 -80 -458 -77 -461 3 -3 8 -2 12 1 7 8 212 854
213 879 0 12 -45 39 -64 38 -1 0 -38 -206 -84 -457z"/>
<path d="M2498 2148 c-16 -5 -28 -13 -28 -17 0 -5 40 -150 89 -322 49 -173
103 -366 121 -429 31 -110 43 -140 55 -128 3 2 -40 206 -95 452 -55 246 -100
449 -100 451 0 7 -11 5 -42 -7z"/>
<path d="M1901 2031 c-24 -34 -26 -42 -8 -35 7 2 34 -15 60 -39 43 -40 48 -42
62 -27 20 22 19 29 -3 23 -21 -5 -47 21 -37 37 4 6 20 8 41 4 34 -6 64 7 64
29 0 7 -4 7 -12 -1 -22 -22 -74 -14 -92 13 -22 33 -50 32 -75 -4z m68 -5 c18
-21 -11 -41 -38 -26 -12 6 -21 14 -21 19 0 23 41 29 59 7z"/>
<path d="M3107 1652 c-92 -214 -167 -394 -167 -401 0 -34 36 32 206 377 l185
377 -21 17 c-12 10 -25 18 -29 18 -4 0 -82 -175 -174 -388z"/>
<path d="M2262 2007 c-12 -13 -22 -27 -22 -31 0 -6 83 -159 367 -673 19 -35
41 -63 49 -63 9 0 13 3 11 8 -3 4 -87 178 -187 387 -100 209 -185 383 -189
388 -4 4 -17 -3 -29 -16z"/>
<path d="M3406 1988 c-13 -22 -374 -647 -424 -736 -13 -24 -22 -45 -20 -48 10
-10 490 776 484 792 -8 21 -24 17 -40 -8z"/>
<path d="M2123 1968 c-8 -10 53 -106 239 -378 137 -201 256 -372 265 -380 20
-18 38 -48 -245 395 -123 193 -230 356 -237 363 -10 11 -14 11 -22 0z"/>
<path d="M3761 1934 c-1 -6 -24 -21 -52 -34 -73 -35 -83 -65 -38 -115 17 -19
19 -24 19 -45 0 -5 5 -10 11 -10 5 0 7 4 4 10 -6 10 84 60 109 60 9 0 12 7 9
20 -5 19 -7 19 -22 6 -27 -24 -91 -47 -112 -41 -20 7 -35 47 -24 65 12 19 87
52 107 47 14 -4 16 -2 10 6 -5 7 -12 19 -15 27 -3 8 -6 10 -6 4z"/>
<path d="M1802 1875 c-24 -51 -27 -59 -12 -50 12 7 107 -40 112 -57 2 -6 16
10 31 37 26 45 26 50 11 64 -15 15 -16 14 -11 -2 8 -21 -12 -67 -28 -67 -6 0
-19 6 -30 13 -17 14 -17 15 2 34 20 20 20 20 0 33 -17 10 -19 10 -14 -3 8 -22
-15 -49 -36 -41 -22 8 -22 29 2 53 17 17 18 31 1 31 -3 0 -16 -20 -28 -45z"/>
<path d="M3237 1544 c-120 -169 -215 -310 -210 -315 8 -8 457 523 469 556 6
15 -20 65 -34 65 -4 0 -105 -138 -225 -306z"/>
<path d="M2090 1803 c-8 -15 -16 -31 -18 -35 -5 -9 477 -542 494 -546 8 -2 14
0 14 5 0 7 -435 561 -464 591 -10 10 -15 7 -26 -15z"/>
<path d="M3380 1559 c-315 -337 -353 -379 -343 -379 4 0 135 127 291 283 214
214 281 287 276 300 -3 9 -9 17 -13 16 -3 0 -98 -99 -211 -220z"/>
<path d="M1732 1690 c-16 -76 -16 -74 5 -79 14 -3 15 -1 5 12 -12 14 -7 47 7
47 23 0 105 -31 112 -42 7 -10 9 -9 9 4 0 9 3 25 6 35 5 14 4 15 -5 7 -10 -9
-25 -8 -63 2 -61 16 -66 20 -50 44 15 25 15 30 -1 30 -8 0 -18 -24 -25 -60z"/>
<path d="M1973 1724 c-5 -13 3 -26 29 -48 19 -17 149 -135 289 -261 140 -127
261 -235 269 -239 16 -9 -479 478 -542 533 -34 29 -39 31 -45 15z"/>
<path d="M3848 1699 c-9 -10 -41 -20 -72 -24 -46 -6 -56 -11 -56 -26 0 -18 2
-18 23 -5 12 7 40 17 61 21 l40 7 -25 -34 c-60 -79 -72 -98 -67 -103 3 -3 28
0 57 6 29 6 62 8 75 5 20 -5 23 -2 19 18 -5 22 -7 23 -31 11 -15 -7 -42 -16
-61 -20 -39 -8 -39 -8 22 72 21 28 37 60 35 70 -3 17 -4 17 -20 2z"/>
<path d="M3345 1406 c-126 -107 -231 -199 -233 -205 -2 -6 4 -11 12 -11 20 0
471 337 470 351 -1 5 -2 20 -2 34 -1 14 -5 25 -9 25 -5 0 -111 -88 -238 -194z"/>
<path d="M1995 1546 c-4 -19 -4 -39 -1 -44 3 -5 111 -80 241 -167 158 -107
238 -156 245 -149 7 7 -53 59 -182 161 -106 83 -216 170 -245 192 l-52 42 -6
-35z"/>
<path d="M1696 1526 c-16 -63 24 -79 75 -30 40 39 59 38 59 -2 0 -16 -8 -28
-22 -34 -22 -8 -22 -9 4 -9 22 -1 28 5 33 29 14 63 -39 80 -91 29 -18 -17 -37
-28 -43 -25 -16 11 -13 23 11 46 22 20 22 20 1 20 -14 0 -23 -8 -27 -24z"/>
<path d="M3397 1322 c-153 -97 -273 -178 -267 -180 8 -3 512 286 548 314 2 1
2 11 0 22 -3 18 -42 -5 -281 -156z"/>
<path d="M1911 1445 c3 -11 102 -70 279 -166 251 -136 311 -165 284 -140 -12
12 -525 308 -548 317 -14 5 -17 3 -15 -11z"/>
<path d="M3860 1449 c-25 -6 -57 -8 -72 -6 -17 2 -28 -1 -28 -9 0 -8 18 -10
66 -6 50 4 68 2 75 -9 6 -10 9 -6 9 14 0 15 -1 27 -2 26 -2 -1 -23 -5 -48 -10z"/>
<path d="M1813 1379 c10 -6 17 -22 17 -39 0 -27 -3 -30 -30 -30 -23 0 -30 5
-30 19 0 11 6 22 13 24 6 3 -1 5 -18 5 -16 0 -24 -2 -17 -5 6 -2 12 -16 12
-29 0 -19 -5 -24 -26 -24 -24 0 -26 3 -22 35 3 25 0 35 -10 35 -10 0 -12 -7
-8 -22 3 -13 6 -39 6 -58 0 -25 3 -31 9 -20 7 10 29 14 76 15 l66 0 -5 29 c-3
16 -6 39 -6 52 0 18 -5 24 -22 24 -21 -1 -21 -2 -5 -11z"/>
<path d="M3896 1333 c-4 -4 -39 -16 -77 -28 -39 -11 -71 -24 -71 -30 -1 -5 23
-24 53 -42 30 -17 59 -37 66 -42 18 -16 23 -13 23 13 0 19 -4 22 -22 19 -13
-2 -41 7 -63 21 l-40 25 30 11 c16 6 45 12 65 13 24 1 37 8 43 21 8 20 5 30
-7 19z"/>
<path d="M2685 1186 c-120 -28 -248 -103 -317 -186 l-34 -41 -114 35 c-63 19
-123 38 -133 42 -17 6 -17 5 -1 -30 19 -40 21 -40 179 -75 177 -38 266 -46
500 -46 236 1 333 10 533 54 178 39 200 48 223 93 19 38 20 40 2 33 -10 -5
-71 -26 -136 -48 l-117 -40 -53 52 c-105 105 -231 160 -382 167 -56 2 -113 -2
-150 -10z m205 -16 c36 -6 97 -26 135 -44 70 -33 185 -127 185 -151 0 -13 -37
-21 -200 -46 -151 -22 -587 -5 -617 25 -9 9 52 75 108 118 66 50 121 75 202
93 77 17 106 17 187 5z"/>
<path d="M1715 1159 c10 -32 25 -48 25 -26 0 14 10 17 55 17 30 0 55 -4 55 -9
0 -16 -74 -71 -89 -66 -10 4 -12 -1 -7 -17 3 -13 6 -27 6 -31 0 -5 12 5 26 22
18 22 35 31 55 31 16 0 29 -4 29 -9 0 -17 -72 -72 -87 -67 -11 5 -13 1 -8 -17
9 -29 25 -46 25 -26 0 8 25 37 55 63 30 26 53 52 50 57 -4 5 -20 9 -37 9 l-31
0 21 23 c12 13 22 28 22 34 0 5 -30 13 -67 16 -38 3 -76 9 -87 13 -16 6 -17 4
-11 -17z"/>
<path d="M3703 1112 c-6 -20 -14 -44 -18 -53 -3 -9 0 -19 7 -21 9 -4 13 4 14
24 1 37 16 52 44 43 15 -5 20 -13 18 -28 -2 -12 -9 -21 -16 -19 -6 1 -12 -2
-12 -8 0 -5 4 -10 9 -10 5 0 16 -3 24 -6 11 -4 13 1 10 19 -5 28 7 40 31 31
20 -8 21 -38 1 -57 -11 -12 -12 -16 -2 -20 7 -2 19 14 29 37 21 51 22 67 3 60
-15 -6 -117 24 -125 37 -3 4 -11 -9 -17 -29z"/>
<path d="M3635 964 c-9 -15 -12 -23 -6 -20 6 4 22 1 36 -7 21 -11 24 -16 13
-24 -7 -7 -31 -13 -53 -15 -31 -2 -41 -8 -43 -23 -3 -16 -1 -18 9 -7 20 19 72
15 92 -8 26 -30 52 -25 76 16 25 43 25 43 4 38 -22 -5 -116 53 -108 66 14 23
-4 8 -20 -16z m95 -64 c22 -12 16 -40 -9 -40 -26 0 -44 17 -38 34 7 19 21 20
47 6z"/>
<path d="M2000 850 c-13 -8 -13 -10 1 -10 9 0 24 -9 34 -20 18 -20 18 -21 -4
-43 -22 -21 -23 -22 -36 -3 -8 10 -12 23 -8 28 3 6 -5 4 -18 -3 -19 -11 -21
-14 -7 -17 24 -5 31 -33 13 -51 -13 -14 -16 -13 -30 4 -8 11 -15 26 -15 33 0
6 -4 12 -9 12 -23 0 -17 -18 20 -60 22 -25 37 -38 34 -30 -6 19 90 94 107 84
7 -4 -6 13 -27 39 -22 26 -39 47 -40 47 0 0 -7 -5 -15 -10z"/>
<path d="M3521 803 c-25 -31 -26 -46 -5 -67 18 -19 22 -19 63 -5 23 8 36 8 43
1 16 -16 -10 -45 -34 -38 -16 4 -17 2 -7 -10 10 -12 15 -13 33 -1 12 8 22 26
24 40 4 31 -20 41 -68 27 -27 -8 -38 -7 -49 5 -20 20 4 48 36 42 28 -5 30 4 4
20 -17 11 -23 9 -40 -14z"/>
<path d="M3124 785 c-28 -43 -5 -125 35 -125 26 0 41 21 41 56 0 40 -21 58
-57 50 l-28 -6 28 25 c19 17 23 25 13 25 -9 0 -23 -11 -32 -25z m64 -72 c3
-27 0 -33 -15 -33 -26 0 -43 19 -43 48 0 20 4 23 28 20 22 -2 28 -8 30 -35z"/>
<path d="M2429 766 c14 -17 3 -77 -17 -93 -14 -12 -14 -13 0 -13 9 0 25 -3 35
-7 15 -5 16 -4 6 8 -11 14 -5 82 11 107 5 8 -2 12 -20 12 -21 0 -24 -3 -15
-14z"/>
<path d="M2641 753 c-5 -11 -6 -25 -1 -33 5 -8 3 -21 -3 -32 -17 -26 3 -53 39
-53 l29 0 0 65 c0 63 -1 65 -27 68 -18 2 -30 -3 -37 -15z m57 -16 c2 -11 -3
-17 -17 -17 -23 0 -35 15 -26 31 10 15 39 6 43 -14z m-10 -46 c20 -12 10 -46
-14 -49 -23 -3 -37 18 -28 43 7 17 22 19 42 6z"/>
<path d="M2886 744 c-20 -20 -21 -30 -1 -14 19 16 45 6 45 -18 0 -11 -9 -31
-20 -45 -28 -36 -25 -46 12 -38 21 4 34 14 37 26 3 17 2 18 -14 2 -16 -17 -35
-23 -35 -11 0 3 9 17 20 31 23 29 25 54 8 71 -16 16 -33 15 -52 -4z"/>
<path d="M2120 713 c-25 -10 -30 -26 -23 -77 5 -43 4 -48 -13 -44 -12 2 -20
13 -22 30 -3 22 -6 25 -16 15 -21 -19 10 -59 43 -55 24 3 26 6 26 57 0 35 5
56 13 59 19 6 44 -19 39 -40 -6 -23 2 -23 18 -1 11 15 9 21 -18 40 -17 13 -31
23 -31 22 -1 0 -8 -3 -16 -6z"/>
<path d="M3418 701 c-22 -21 -23 -32 -4 -25 17 6 91 -80 81 -96 -11 -18 11
-11 30 10 15 17 16 20 3 20 -22 0 -91 79 -84 96 7 19 -5 17 -26 -5z"/>
<path d="M2232 555 c-1 -47 0 -85 4 -85 3 0 28 16 54 35 26 19 58 38 71 43
l23 9 -22 12 c-17 9 -22 9 -22 -1 0 -7 -9 -19 -21 -26 -17 -11 -25 -11 -44 2
-20 13 -22 20 -15 45 7 26 -2 51 -19 51 -4 0 -7 -38 -9 -85z m48 -35 c0 -4 -7
-13 -15 -20 -13 -11 -15 -8 -15 13 0 19 4 25 15 21 8 -4 15 -10 15 -14z"/>
<path d="M3290 605 c-16 -10 -20 -14 -9 -15 9 0 28 -23 44 -51 22 -42 25 -53
14 -60 -8 -5 -20 -7 -26 -4 -14 5 -18 -7 -6 -18 4 -5 96 39 121 59 2 1 -1 11
-7 21 -9 16 -10 16 -11 1 0 -10 -9 -22 -19 -28 -16 -8 -23 -4 -41 25 -12 19
-25 46 -28 59 -7 23 -9 24 -32 11z"/>
<path d="M2421 527 c-18 -18 -13 -29 8 -17 29 15 49 12 71 -10 27 -27 25 -63
-3 -96 -21 -23 -27 -26 -53 -17 -16 5 -34 20 -40 32 -10 19 -12 20 -18 6 -3
-9 -6 -18 -6 -20 0 -7 70 -35 89 -35 56 0 95 96 54 132 -26 23 -89 38 -102 25z"/>
<path d="M3120 525 c-18 -10 -20 -14 -8 -15 30 0 42 -96 16 -127 -6 -8 -9 -16
-6 -18 10 -10 29 23 31 54 2 36 4 37 37 11 27 -21 60 -26 60 -9 0 5 -4 8 -8 5
-5 -3 -25 6 -45 19 -34 24 -54 56 -49 83 3 15 3 15 -28 -3z"/>
<path d="M2801 432 c-8 -15 -7 -23 3 -31 11 -10 16 -8 21 9 10 30 -10 48 -24
22z"/>
</g>
</svg>
